<svg class="animated" id="freepik_stories-metrics" xmlns="http://www.w3.org/2000/svg" viewBox="0 0 500 500" version="1.1" xmlns:xlink="http://www.w3.org/1999/xlink" xmlns:svgjs="http://svgjs.com/svgjs"><style>svg#freepik_stories-metrics:not(.animated) .animable {opacity: 0;}svg#freepik_stories-metrics.animated #freepik--background-complete--inject-161 {animation: 6s Infinite  linear floating;animation-delay: 0s;}svg#freepik_stories-metrics.animated #freepik--Metrics--inject-161 {animation: 6s Infinite  linear wind;animation-delay: 0s;}svg#freepik_stories-metrics.animated #freepik--character-2--inject-161 {animation: 1.5s Infinite  linear wind;animation-delay: 0s;}svg#freepik_stories-metrics.animated #freepik--character-1--inject-161 {animation: 1.5s Infinite  linear wind;animation-delay: 0s;}            @keyframes floating {                0% {                    opacity: 1;                    transform: translateY(0px);                }                50% {                    transform: translateY(-10px);                }                100% {                    opacity: 1;                    transform: translateY(0px);                }            }                    @keyframes wind {                0% {                    transform: rotate( 0deg );                }                25% {                    transform: rotate( 1deg );                }                75% {                    transform: rotate( -1deg );                }            }        </style><g id="freepik--background-complete--inject-161" class="animable animator-active" style="transform-origin: 250px 228.23px;"><rect x="416.78" y="398.49" width="33.12" height="0.25" style="fill: rgb(235, 235, 235); transform-origin: 433.34px 398.615px;" id="el7qbsxeltkpp" class="animable"></rect><rect x="322.53" y="401.21" width="8.69" height="0.25" style="fill: rgb(235, 235, 235); transform-origin: 326.875px 401.335px;" id="elqh79mvsj63d" class="animable"></rect><rect x="396.59" y="389.21" width="19.19" height="0.25" style="fill: rgb(235, 235, 235); transform-origin: 406.185px 389.335px;" id="elkg92meg4qo" class="animable"></rect><rect x="52.46" y="390.89" width="43.19" height="0.25" style="fill: rgb(235, 235, 235); transform-origin: 74.055px 391.015px;" id="elfkulnvwxhg6" class="animable"></rect><rect x="104.56" y="390.89" width="6.33" height="0.25" style="fill: rgb(235, 235, 235); transform-origin: 107.725px 391.015px;" id="elqt70ax0f8ij" class="animable"></rect><rect x="131.47" y="395.11" width="93.68" height="0.25" style="fill: rgb(235, 235, 235); transform-origin: 178.31px 395.235px;" id="elzjo0k6kidy" class="animable"></rect><path d="M237,337.8H43.92a5.71,5.71,0,0,1-5.71-5.71V60.66A5.71,5.71,0,0,1,43.92,55H237a5.71,5.71,0,0,1,5.71,5.71V332.09A5.71,5.71,0,0,1,237,337.8ZM43.92,55.2a5.47,5.47,0,0,0-5.46,5.46V332.09a5.47,5.47,0,0,0,5.46,5.46H237a5.47,5.47,0,0,0,5.46-5.46V60.66A5.47,5.47,0,0,0,237,55.2Z" style="fill: rgb(235, 235, 235); transform-origin: 140.46px 196.4px;" id="elmj51n5vyb4" class="animable"></path><path d="M453.31,337.8H260.21a5.72,5.72,0,0,1-5.71-5.71V60.66A5.72,5.72,0,0,1,260.21,55h193.1A5.71,5.71,0,0,1,459,60.66V332.09A5.71,5.71,0,0,1,453.31,337.8ZM260.21,55.2a5.47,5.47,0,0,0-5.46,5.46V332.09a5.47,5.47,0,0,0,5.46,5.46h193.1a5.47,5.47,0,0,0,5.46-5.46V60.66a5.47,5.47,0,0,0-5.46-5.46Z" style="fill: rgb(235, 235, 235); transform-origin: 356.75px 196.4px;" id="elo4xhbzit2cp" class="animable"></path><rect y="382.4" width="500" height="0.25" style="fill: rgb(235, 235, 235); transform-origin: 250px 382.525px;" id="el6tjar46kjgx" class="animable"></rect><path d="M106.92,382.88H81.34a3.72,3.72,0,0,1-3.71-3.47l-3.51-53.58a3.71,3.71,0,0,1,3.71-4h32.61a3.71,3.71,0,0,1,3.7,4l-3.51,53.58A3.72,3.72,0,0,1,106.92,382.88Z" style="fill: rgb(245, 245, 245); transform-origin: 94.13px 352.355px;" id="el40e1rju30j7" class="animable"></path><path d="M114,324.67a3.7,3.7,0,0,0-3.58-2.8H77.83a3.7,3.7,0,0,0-3.58,2.8l-.1,1.54.1,1.54a3.71,3.71,0,0,0,3.58,2.8h32.61a3.71,3.71,0,0,0,3.58-2.8l.1-1.54Z" style="fill: rgb(235, 235, 235); transform-origin: 94.135px 326.21px;" id="elf5zvr6jxm1" class="animable"></path><path d="M76.42,272.81c-4.17-5.15-12.23-8.58-21.08-10.23.69,2.53.17,4.87-1.33,5.44-1.67.64-3.91-1.15-5-4a8.83,8.83,0,0,1-.55-2.36c-8.92-.72-17.85.3-23.8,3.16,0,0,5.83,5.26,12.43,19.08h.62c4.27,0,7.72,2.11,7.69,4.61,0,1.83-1.89,3.38-4.56,4.07.35.89.7,1.79,1,2.72,6.3,17,23.08,4.72,22.93-6.94C64.81,288.35,85.77,284.33,76.42,272.81Z" style="fill: rgb(240, 240, 240); transform-origin: 51.741px 282.555px;" id="el3zqtst3ktml" class="animable"></path><path d="M31.81,267.14l-.47-.18Z" style="fill: rgb(224, 224, 224); transform-origin: 31.575px 267.05px;" id="elhbjcnhgt41t" class="animable"></path><path d="M57.84,281.62c-.14-2.12,0-7.76,5.21-11,0,0-5.74.86-6.57,9.93a91.23,91.23,0,0,0-24.67-13.42c2.66,1,16.2,6.52,30.13,19.65a12.34,12.34,0,0,0-10.58,7.49s4.46-6.42,12.08-6.06a103.4,103.4,0,0,1,24.78,38.61,1.44,1.44,0,0,0,1.85.86h0a1.42,1.42,0,0,0,.82-1.86C88.66,320.24,79,298.31,57.84,281.62Z" style="fill: rgb(224, 224, 224); transform-origin: 61.4013px 297.449px;" id="elfs7b6d8h3ar" class="animable"></path><path d="M100.65,272.92c2.82-6,9.82-11.26,18-15-.06,2.63,1,4.77,2.59,5,1.78.22,3.52-2.06,3.89-5.09a8.85,8.85,0,0,0,0-2.42c8.49-2.85,17.4-4,23.87-2.66,0,0-4.4,6.5-7.48,21.51l-.6.13c-4.14,1.07-7,3.91-6.36,6.33.46,1.77,2.65,2.83,5.4,2.85-.12.95-.24,1.9-.35,2.89-2,18.05-21.26,10.14-23.92-1.21C115.67,285.22,94.35,286.36,100.65,272.92Z" style="fill: rgb(224, 224, 224); transform-origin: 124.243px 274.664px;" id="elrggm0o6jxhj" class="animable"></path><path d="M142.59,256.68l.42-.28Z" style="fill: rgb(245, 245, 245); transform-origin: 142.8px 256.54px;" id="elqclizynf5kd" class="animable"></path><path d="M99.37,327.87a1.44,1.44,0,0,0,1.25,1.61h0a1.44,1.44,0,0,0,1.59-1.28A103.36,103.36,0,0,1,117,284.75c7.3-2.18,13.18,3,13.18,3A12.32,12.32,0,0,0,118.07,283c10.36-16.1,22.18-24.72,24.52-26.33a91.28,91.28,0,0,0-20.71,19c-3-8.6-8.77-8-8.77-8,5.81,1.88,7.33,7.32,7.7,9.41C104.33,298.28,100.19,321.91,99.37,327.87Z" style="fill: rgb(245, 245, 245); transform-origin: 120.974px 293.079px;" id="elo3amijmb21i" class="animable"></path><path d="M106.64,271.12c-1.32-6.49-6.9-13.25-14-18.8-.55,2.57-2.09,4.4-3.68,4.22-1.78-.21-2.94-2.83-2.59-5.86a8.8,8.8,0,0,1,.6-2.35c-7.58-4.76-16-8-22.58-8.18,0,0,2.75,7.36,2.23,22.67a5.6,5.6,0,0,1,.55.27c3.77,2,5.88,5.43,4.7,7.64-.86,1.61-3.23,2.13-5.92,1.51-.1.94-.21,1.9-.33,2.89-2.28,18,18.29,14.84,23.54,4.43C89.17,279.56,109.62,285.65,106.64,271.12Z" style="fill: rgb(245, 245, 245); transform-origin: 85.6633px 264.077px;" id="elwnfrrjjfgum" class="animable"></path><path d="M69.68,245.51l-.34-.38Z" style="fill: rgb(224, 224, 224); transform-origin: 69.51px 245.32px;" id="el3kxmjbu94u9" class="animable"></path><path d="M86.09,270.37c.85-1.94,3.6-6.88,9.7-7.35,0,0-5.5-1.89-10.42,5.78a91.15,91.15,0,0,0-15.69-23.29c1.9,2.11,11.37,13.26,17.67,31.34a12.31,12.31,0,0,0-12.85,1.76S81.42,275,88,278.8a103.35,103.35,0,0,1,4.18,45.7,1.42,1.42,0,0,0,1.24,1.61h0A1.43,1.43,0,0,0,95,324.84C95.62,318.85,97.13,294.91,86.09,270.37Z" style="fill: rgb(224, 224, 224); transform-origin: 82.735px 285.814px;" id="eliqotwjesfn" class="animable"></path><polygon points="77.86 227.75 74.36 227.75 99.64 115.25 103.14 115.25 77.86 227.75" style="fill: rgb(245, 245, 245); transform-origin: 88.75px 171.5px;" id="elddb039ccvbj" class="animable"></polygon><polygon points="71.61 227.75 61.36 227.75 86.64 115.25 96.89 115.25 71.61 227.75" style="fill: rgb(245, 245, 245); transform-origin: 79.125px 171.5px;" id="el3vtapyq2ybb" class="animable"></polygon><polygon points="101.61 227.75 87.36 227.75 112.64 115.25 126.89 115.25 101.61 227.75" style="fill: rgb(250, 250, 250); transform-origin: 107.125px 171.5px;" id="elo5zovm2egul" class="animable"></polygon><path d="M132.92,231.74H53.86V111.43h79.06Zm-74.06-5h69.06V116.43H58.86Z" style="fill: rgb(235, 235, 235); transform-origin: 93.39px 171.585px;" id="el0s4016lll13a" class="animable"></path><rect x="47.36" y="226.74" width="92.06" height="5" style="fill: rgb(224, 224, 224); transform-origin: 93.39px 229.24px;" id="elnsv2i8ixxtp" class="animable"></rect><rect x="91.89" y="113.93" width="3" height="115.31" style="fill: rgb(235, 235, 235); transform-origin: 93.39px 171.585px;" id="el2rh35k72aj7" class="animable"></rect><rect x="56.36" y="170.08" width="74.06" height="3" style="fill: rgb(224, 224, 224); transform-origin: 93.39px 171.58px;" id="el7ivsgwhuqzb" class="animable"></rect></g><g id="freepik--Shadow--inject-161" class="animable" style="transform-origin: 245.18px 412.39px;"><ellipse id="freepik--path--inject-161" cx="245.18" cy="412.39" rx="193.89" ry="11.32" style="fill: rgb(245, 245, 245); transform-origin: 245.18px 412.39px;" class="animable"></ellipse></g><g id="freepik--Metrics--inject-161" class="animable" style="transform-origin: 298.54px 258.9px;"><path d="M279.82,407.12l18.72-18.72,18.72,18.72a2.56,2.56,0,0,0,1.82.75h0a2.57,2.57,0,0,0,1.81-4.39l-22.35-22.36-22.36,22.36a2.57,2.57,0,0,0,1.82,4.39h0A2.58,2.58,0,0,0,279.82,407.12Z" style="fill: rgb(0, 255, 136); transform-origin: 298.535px 394.495px;" id="el8ps4onohkgb" class="animable"></path><g id="elikbr0rrt4y8"><polygon points="299.17 381.76 297.9 381.76 292.17 387.49 292.17 394.5 292.44 394.5 298.54 388.4 304.64 394.5 304.91 394.5 304.91 387.49 299.17 381.76" style="opacity: 0.2; transform-origin: 298.54px 388.13px;" class="animable"></polygon></g><path d="M294.71,341.71h7.66a0,0,0,0,1,0,0v63.16a3,3,0,0,1-3,3h-1.66a3,3,0,0,1-3-3V341.71A0,0,0,0,1,294.71,341.71Z" style="fill: rgb(0, 255, 136); transform-origin: 298.54px 374.79px;" id="elfwjtvch0tqg" class="animable"></path><g id="elt7pf5kabyxc"><rect x="294.71" y="341.71" width="7.66" height="4.64" style="opacity: 0.2; transform-origin: 298.54px 344.03px;" class="animable"></rect></g><path d="M434.87,343.43H162.2a10.17,10.17,0,0,1-10.15-10.16V112.07H445v221.2A10.17,10.17,0,0,1,434.87,343.43ZM155.47,115.5V333.27A6.74,6.74,0,0,0,162.2,340H434.87a6.74,6.74,0,0,0,6.73-6.73V115.5Z" style="fill: rgb(0, 255, 136); transform-origin: 298.525px 227.75px;" id="elcbyaiq510gi" class="animable"></path><g id="eli0zbhrib1bj"><g style="opacity: 0.8; transform-origin: 298.525px 227.75px;" class="animable"><path d="M434.87,343.43H162.2a10.17,10.17,0,0,1-10.15-10.16V112.07H445v221.2A10.17,10.17,0,0,1,434.87,343.43ZM155.47,115.5V333.27A6.74,6.74,0,0,0,162.2,340H434.87a6.74,6.74,0,0,0,6.73-6.73V115.5Z" style="fill: rgb(255, 255, 255); transform-origin: 298.525px 227.75px;" id="els8zxvkek6m" class="animable"></path></g></g><g id="el4s6lyvzt6sp"><g style="opacity: 0.8; transform-origin: 298.535px 227.75px;" class="animable"><path d="M155.47,115.5V333.27A6.74,6.74,0,0,0,162.2,340H434.87a6.74,6.74,0,0,0,6.73-6.73V115.5Z" style="fill: rgb(255, 255, 255); transform-origin: 298.535px 227.75px;" id="elmhks2n6rbv" class="animable"></path></g></g><rect x="145.43" y="109.93" width="306.22" height="7.72" style="fill: rgb(0, 255, 136); transform-origin: 298.54px 113.79px;" id="el04ptucytxjox" class="animable"></rect><g id="elwt28onbtyb"><rect x="145.43" y="109.93" width="306.22" height="7.72" style="fill: rgb(255, 255, 255); opacity: 0.5; transform-origin: 298.54px 113.79px;" class="animable"></rect></g><g id="el9ybvbfstwxo"><rect x="145.43" y="109.93" width="306.22" height="3.86" style="fill: rgb(255, 255, 255); opacity: 0.5; transform-origin: 298.54px 111.86px;" class="animable"></rect></g><path d="M347.2,294.59v-1.46H336V281.81h-1.45v11.32H323.74V281.81h-1.46v11.32H311.69V281.81h-1.46v11.32h-10.5V281.81h-1.45v11.32H287.5V281.81H286v11.32H274.91v1.46H286v10.59H274.91v1.46H286v10.59H274.91v1.46H286V330h1.46V318.69h10.78V330h1.45V318.69h10.5V330h1.46V318.69h10.59V330h1.46V318.69h10.78V330H336V318.69H347.2v-1.46H336V306.64H347.2v-1.46H336V294.59Zm-24.92,0v10.59H311.69V294.59Zm-12,0v10.59h-10.5V294.59Zm-22.73,0h10.78v10.59H287.5Zm0,22.64V306.64h10.78v10.59Zm12.23,0V306.64h10.5v10.59Zm12,0V306.64h10.59v10.59Zm22.83,0H323.74V306.64h10.78Zm0-12.05H323.74V294.59h10.78Z" style="fill: rgb(0, 255, 136); transform-origin: 311.055px 305.905px;" id="elzm6792yb67" class="animable"></path><g id="elc1a34gncfbe"><path d="M347.2,294.59v-1.46H336V281.81h-1.45v11.32H323.74V281.81h-1.46v11.32H311.69V281.81h-1.46v11.32h-10.5V281.81h-1.45v11.32H287.5V281.81H286v11.32H274.91v1.46H286v10.59H274.91v1.46H286v10.59H274.91v1.46H286V330h1.46V318.69h10.78V330h1.45V318.69h10.5V330h1.46V318.69h10.59V330h1.46V318.69h10.78V330H336V318.69H347.2v-1.46H336V306.64H347.2v-1.46H336V294.59Zm-24.92,0v10.59H311.69V294.59Zm-12,0v10.59h-10.5V294.59Zm-22.73,0h10.78v10.59H287.5Zm0,22.64V306.64h10.78v10.59Zm12.23,0V306.64h10.5v10.59Zm12,0V306.64h10.59v10.59Zm22.83,0H323.74V306.64h10.78Zm0-12.05H323.74V294.59h10.78Z" style="fill: rgb(255, 255, 255); opacity: 0.7; transform-origin: 311.055px 305.905px;" class="animable"></path></g><path d="M343.53,331.46h-65a5.13,5.13,0,0,1-5.12-5.1l-.16-40.86a5.12,5.12,0,0,1,5.12-5.15h65.13a5.13,5.13,0,0,1,5.13,5.13v40.86A5.13,5.13,0,0,1,343.53,331.46ZM278.4,283.27a2.22,2.22,0,0,0-2.21,2.22l.16,40.86a2.22,2.22,0,0,0,2.21,2.2h65a2.22,2.22,0,0,0,2.22-2.21V285.48a2.22,2.22,0,0,0-2.22-2.21Z" style="fill: rgb(0, 255, 136); transform-origin: 310.94px 305.905px;" id="el171bu08w9s" class="animable"></path><g id="elqv4c8sj9i6f"><g style="opacity: 0.8; transform-origin: 310.94px 305.905px;" class="animable"><path d="M343.53,331.46h-65a5.13,5.13,0,0,1-5.12-5.1l-.16-40.86a5.12,5.12,0,0,1,5.12-5.15h65.13a5.13,5.13,0,0,1,5.13,5.13v40.86A5.13,5.13,0,0,1,343.53,331.46ZM278.4,283.27a2.22,2.22,0,0,0-2.21,2.22l.16,40.86a2.22,2.22,0,0,0,2.21,2.2h65a2.22,2.22,0,0,0,2.22-2.21V285.48a2.22,2.22,0,0,0-2.22-2.21Z" style="fill: rgb(255, 255, 255); transform-origin: 310.94px 305.905px;" id="el5ow7milfjn5" class="animable"></path></g></g><polygon points="335.25 302.59 335.25 296.57 276.24 296.57 276.26 302.59 335.25 302.59" style="fill: rgb(0, 255, 136); transform-origin: 305.745px 299.58px;" id="elcli8gqniw7j" class="animable"></polygon><g id="elqkvvv7rg4on"><polygon points="335.25 302.59 335.25 296.57 276.24 296.57 276.26 302.59 335.25 302.59" style="fill: rgb(255, 255, 255); opacity: 0.6; transform-origin: 305.745px 299.58px;" class="animable"></polygon></g><path d="M323,284.82H276.3a2.47,2.47,0,0,0-.11.67l0,5.36H323Z" style="fill: rgb(0, 255, 136); transform-origin: 299.595px 287.835px;" id="elfytvk7yeziw" class="animable"></path><g id="elkh73gd99mq9"><path d="M323,284.82H276.3a2.47,2.47,0,0,0-.11.67l0,5.36H323Z" style="fill: rgb(255, 255, 255); opacity: 0.3; transform-origin: 299.595px 287.835px;" class="animable"></path></g><path d="M341.38,321H276.33l0,5.38a2.26,2.26,0,0,0,.11.64h64.92Z" style="fill: rgb(0, 255, 136); transform-origin: 308.855px 324.01px;" id="ela0okjtfmedv" class="animable"></path><g id="el8xg5uqi835m"><path d="M341.38,321H276.33l0,5.38a2.26,2.26,0,0,0,.11.64h64.92Z" style="opacity: 0.2; transform-origin: 308.855px 324.01px;" class="animable"></path></g><polygon points="310.96 314.94 310.96 308.92 276.28 308.92 276.31 314.94 310.96 314.94" style="fill: rgb(0, 255, 136); transform-origin: 293.62px 311.93px;" id="elbnne8wppnbq" class="animable"></polygon><path d="M430.62,149.58v-1.45H407.25V124.76H405.8v23.37H383.15V124.76H381.7v23.37H359.06V124.76H357.6v23.37H335V124.76H333.5v23.37H310.86V124.76H309.4v23.37H286.76V124.76H285.3v23.37H262.66V124.76H261.2v23.37H238.56V124.76h-1.45v23.37H214.47V124.76H213v23.37H190.37V124.76h-1.46v23.37H165.54v1.45h23.37v22.64H165.54v1.46h23.37v22.64H165.54v1.46h23.37v22.64H165.54v1.46h23.37v22.64H165.54V246h23.37v23.37h1.46V246H213v23.37h1.46V246h22.64v23.37h1.45V246H261.2v23.37h1.46V246H285.3v23.37h1.46V246H309.4v23.37h1.46V246H333.5v23.37H335V246H357.6v23.37h1.46V246H381.7v23.37h1.45V246H405.8v23.37h1.45V246h23.37v-1.46H407.25V221.88h23.37v-1.46H407.25V197.78h23.37v-1.46H407.25V173.68h23.37v-1.46H407.25V149.58Zm-48.92,0v22.64H359.06V149.58Zm-48.2,46.74H310.86V173.68H333.5ZM335,173.68H357.6v22.64H335ZM309.4,196.32H286.76V173.68H309.4Zm-24.1,0H262.66V173.68H285.3Zm-24.1,0H238.56V173.68H261.2Zm-24.09,0H214.47V173.68h22.64Zm0,1.46v22.64H214.47V197.78Zm1.45,0H261.2v22.64H238.56Zm24.1,0H285.3v22.64H262.66Zm24.1,0H309.4v22.64H286.76Zm24.1,0H333.5v22.64H310.86Zm24.1,0H357.6v22.64H335Zm24.1,0H381.7v22.64H359.06Zm0-1.46V173.68H381.7v22.64Zm-1.46-46.74v22.64H335V149.58Zm-24.1,0v22.64H310.86V149.58Zm-24.1,0v22.64H286.76V149.58Zm-24.1,0v22.64H262.66V149.58Zm-24.1,0v22.64H238.56V149.58Zm-24.09,0v22.64H214.47V149.58Zm-46.74,0H213v22.64H190.37Zm0,24.1H213v22.64H190.37Zm0,24.1H213v22.64H190.37Zm0,46.74V221.88H213v22.64Zm24.1,0V221.88h22.64v22.64Zm24.09,0V221.88H261.2v22.64Zm24.1,0V221.88H285.3v22.64Zm24.1,0V221.88H309.4v22.64Zm24.1,0V221.88H333.5v22.64Zm24.1,0V221.88H357.6v22.64Zm24.1,0V221.88H381.7v22.64Zm46.74,0H383.15V221.88H405.8Zm0-24.1H383.15V197.78H405.8Zm0-24.1H383.15V173.68H405.8Zm0-24.1H383.15V149.58H405.8Z" style="fill: rgb(0, 255, 136); transform-origin: 298.08px 197.065px;" id="elxqm5xugrfra" class="animable"></path><g id="elsz3804ewhl9"><path d="M430.62,149.58v-1.45H407.25V124.76H405.8v23.37H383.15V124.76H381.7v23.37H359.06V124.76H357.6v23.37H335V124.76H333.5v23.37H310.86V124.76H309.4v23.37H286.76V124.76H285.3v23.37H262.66V124.76H261.2v23.37H238.56V124.76h-1.45v23.37H214.47V124.76H213v23.37H190.37V124.76h-1.46v23.37H165.54v1.45h23.37v22.64H165.54v1.46h23.37v22.64H165.54v1.46h23.37v22.64H165.54v1.46h23.37v22.64H165.54V246h23.37v23.37h1.46V246H213v23.37h1.46V246h22.64v23.37h1.45V246H261.2v23.37h1.46V246H285.3v23.37h1.46V246H309.4v23.37h1.46V246H333.5v23.37H335V246H357.6v23.37h1.46V246H381.7v23.37h1.45V246H405.8v23.37h1.45V246h23.37v-1.46H407.25V221.88h23.37v-1.46H407.25V197.78h23.37v-1.46H407.25V173.68h23.37v-1.46H407.25V149.58Zm-48.92,0v22.64H359.06V149.58Zm-48.2,46.74H310.86V173.68H333.5ZM335,173.68H357.6v22.64H335ZM309.4,196.32H286.76V173.68H309.4Zm-24.1,0H262.66V173.68H285.3Zm-24.1,0H238.56V173.68H261.2Zm-24.09,0H214.47V173.68h22.64Zm0,1.46v22.64H214.47V197.78Zm1.45,0H261.2v22.64H238.56Zm24.1,0H285.3v22.64H262.66Zm24.1,0H309.4v22.64H286.76Zm24.1,0H333.5v22.64H310.86Zm24.1,0H357.6v22.64H335Zm24.1,0H381.7v22.64H359.06Zm0-1.46V173.68H381.7v22.64Zm-1.46-46.74v22.64H335V149.58Zm-24.1,0v22.64H310.86V149.58Zm-24.1,0v22.64H286.76V149.58Zm-24.1,0v22.64H262.66V149.58Zm-24.1,0v22.64H238.56V149.58Zm-24.09,0v22.64H214.47V149.58Zm-46.74,0H213v22.64H190.37Zm0,24.1H213v22.64H190.37Zm0,24.1H213v22.64H190.37Zm0,46.74V221.88H213v22.64Zm24.1,0V221.88h22.64v22.64Zm24.09,0V221.88H261.2v22.64Zm24.1,0V221.88H285.3v22.64Zm24.1,0V221.88H309.4v22.64Zm24.1,0V221.88H333.5v22.64Zm24.1,0V221.88H357.6v22.64Zm24.1,0V221.88H381.7v22.64Zm46.74,0H383.15V221.88H405.8Zm0-24.1H383.15V197.78H405.8Zm0-24.1H383.15V173.68H405.8Zm0-24.1H383.15V149.58H405.8Z" style="fill: rgb(255, 255, 255); opacity: 0.7; transform-origin: 298.08px 197.065px;" class="animable"></path></g><path d="M426.82,270.8H169.34a5.26,5.26,0,0,1-5.26-5.25v-137a5.27,5.27,0,0,1,5.26-5.26H426.82a5.27,5.27,0,0,1,5.26,5.26v137A5.26,5.26,0,0,1,426.82,270.8ZM169.34,126.21a2.35,2.35,0,0,0-2.34,2.35v137a2.32,2.32,0,0,0,.68,1.65,2.36,2.36,0,0,0,1.66.69H426.82a2.34,2.34,0,0,0,2.34-2.34v-137a2.35,2.35,0,0,0-2.34-2.35Z" style="fill: rgb(0, 255, 136); transform-origin: 298.08px 197.045px;" id="elvfre4j1bqjk" class="animable"></path><g id="elpghlsbfj4ao"><g style="opacity: 0.8; transform-origin: 298.08px 197.045px;" class="animable"><path d="M426.82,270.8H169.34a5.26,5.26,0,0,1-5.26-5.25v-137a5.27,5.27,0,0,1,5.26-5.26H426.82a5.27,5.27,0,0,1,5.26,5.26v137A5.26,5.26,0,0,1,426.82,270.8ZM169.34,126.21a2.35,2.35,0,0,0-2.34,2.35v137a2.32,2.32,0,0,0,.68,1.65,2.36,2.36,0,0,0,1.66.69H426.82a2.34,2.34,0,0,0,2.34-2.34v-137a2.35,2.35,0,0,0-2.34-2.35Z" style="fill: rgb(255, 255, 255); transform-origin: 298.08px 197.045px;" id="el4d8u541kpyg" class="animable"></path></g></g><rect x="218.56" y="204.28" width="14.46" height="63.61" style="fill: rgb(0, 255, 136); transform-origin: 225.79px 236.085px;" id="elu9wt1vnatg" class="animable"></rect><rect x="242.65" y="182.59" width="14.46" height="85.3" style="fill: rgb(0, 255, 136); transform-origin: 249.88px 225.24px;" id="elt3hdqntiihe" class="animable"></rect><g id="elop9um9viwd"><rect x="242.65" y="182.59" width="14.46" height="85.3" style="fill: rgb(255, 255, 255); opacity: 0.6; transform-origin: 249.88px 225.24px;" class="animable"></rect></g><rect x="266.75" y="204.28" width="14.46" height="63.61" style="fill: rgb(0, 255, 136); transform-origin: 273.98px 236.085px;" id="elc9gc4m0gst" class="animable"></rect><g id="elfvoeqt2259"><rect x="266.75" y="204.28" width="14.46" height="63.61" style="fill: rgb(255, 255, 255); opacity: 0.3; transform-origin: 273.98px 236.085px;" class="animable"></rect></g><rect x="170.36" y="225.97" width="14.46" height="41.92" style="fill: rgb(0, 255, 136); transform-origin: 177.59px 246.93px;" id="elk8jno1ja1w" class="animable"></rect><g id="el97x3borcfl"><rect x="170.36" y="225.97" width="14.46" height="41.92" style="fill: rgb(255, 255, 255); opacity: 0.6; transform-origin: 177.59px 246.93px;" class="animable"></rect></g><rect x="194.46" y="215.5" width="14.46" height="52.39" style="fill: rgb(0, 255, 136); transform-origin: 201.69px 241.695px;" id="eljuwp95rv5w" class="animable"></rect><g id="el9mrsskna10i"><rect x="194.46" y="215.5" width="14.46" height="52.39" style="fill: rgb(255, 255, 255); opacity: 0.3; transform-origin: 201.69px 241.695px;" class="animable"></rect></g><rect x="290.85" y="225.97" width="14.46" height="41.92" style="fill: rgb(0, 255, 136); transform-origin: 298.08px 246.93px;" id="el5u8phpv2ehb" class="animable"></rect><rect x="411.34" y="160.9" width="14.46" height="106.99" style="fill: rgb(0, 255, 136); transform-origin: 418.57px 214.395px;" id="elcv92e2neklv" class="animable"></rect><g id="elmxi2mfhdcrd"><rect x="411.34" y="160.9" width="14.46" height="106.99" style="fill: rgb(255, 255, 255); opacity: 0.3; transform-origin: 418.57px 214.395px;" class="animable"></rect></g><rect x="314.95" y="204.28" width="14.46" height="63.61" style="fill: rgb(0, 255, 136); transform-origin: 322.18px 236.085px;" id="elv3vc6c3b0f" class="animable"></rect><g id="el0jd8epgqd6ue"><rect x="314.95" y="204.28" width="14.46" height="63.61" style="fill: rgb(255, 255, 255); opacity: 0.6; transform-origin: 322.18px 236.085px;" class="animable"></rect></g><rect x="387.25" y="182.59" width="14.46" height="85.3" style="fill: rgb(0, 255, 136); transform-origin: 394.48px 225.24px;" id="elqcfu1h24u5n" class="animable"></rect><g id="elpf04huxqss"><rect x="387.25" y="182.59" width="14.46" height="85.3" style="fill: rgb(255, 255, 255); opacity: 0.6; transform-origin: 394.48px 225.24px;" class="animable"></rect></g><rect x="363.15" y="193.81" width="14.46" height="74.08" style="fill: rgb(0, 255, 136); transform-origin: 370.38px 230.85px;" id="eldetsfbqf2t" class="animable"></rect><rect x="339.05" y="215.5" width="14.46" height="52.39" style="fill: rgb(0, 255, 136); transform-origin: 346.28px 241.695px;" id="eldtkr11qrt1q" class="animable"></rect><g id="el7falpwqw2ht"><rect x="339.05" y="215.5" width="14.46" height="52.39" style="fill: rgb(255, 255, 255); opacity: 0.3; transform-origin: 346.28px 241.695px;" class="animable"></rect></g><path d="M396.74,281.86v6A18,18,0,0,1,407,292.14l4.27-4.27A24,24,0,0,0,396.74,281.86Z" style="fill: rgb(0, 255, 136); transform-origin: 404.005px 287px;" id="elaed6g264cf" class="animable"></path><g id="el22wulbmich1"><path d="M396.74,281.86v6A18,18,0,0,1,407,292.14l4.27-4.27A24,24,0,0,0,396.74,281.86Z" style="fill: rgb(255, 255, 255); opacity: 0.3; transform-origin: 404.005px 287px;" class="animable"></path></g><path d="M393.83,323.92a18.09,18.09,0,0,1-16.56-16.56h-6a24.11,24.11,0,0,0,22.6,22.6Z" style="fill: rgb(0, 255, 136); transform-origin: 382.57px 318.66px;" id="elwupr581qkk8" class="animable"></path><g id="el0f5fixjweiho"><path d="M393.83,323.92a18.09,18.09,0,0,1-16.56-16.56h-6a24.11,24.11,0,0,0,22.6,22.6Z" style="fill: rgb(255, 255, 255); opacity: 0.7; transform-origin: 382.57px 318.66px;" class="animable"></path></g><path d="M377.27,304.45a18.07,18.07,0,0,1,16.56-16.55v-6a24.09,24.09,0,0,0-22.6,22.59Z" style="fill: rgb(0, 255, 136); transform-origin: 382.53px 293.195px;" id="el4b8awak8el" class="animable"></path><g id="elwhkozw8r248"><path d="M377.27,304.45a18.07,18.07,0,0,1,16.56-16.55v-6a24.09,24.09,0,0,0-22.6,22.59Z" style="opacity: 0.2; transform-origin: 382.53px 293.195px;" class="animable"></path></g><path d="M413.32,289.93l-4.27,4.27a18.07,18.07,0,0,1-12.31,29.72v6a24.1,24.1,0,0,0,16.58-40Z" style="fill: rgb(0, 255, 136); transform-origin: 408.045px 309.92px;" id="eleqbuwsvloel" class="animable"></path><path d="M250.72,294.59v-1.46H239.49V281.81H238v11.32H227.25V281.81H225.8v11.32H215.21V281.81h-1.46v11.32h-10.5V281.81h-1.46v11.32H191V281.81h-1.46v11.32H178.42v1.46h11.14v10.59H178.42v1.46h11.14v10.59H178.42v1.46h11.14V330H191V318.69h10.77V330h1.46V318.69h10.5V330h1.46V318.69H225.8V330h1.45V318.69H238V330h1.46V318.69h11.23v-1.46H239.49V306.64h11.23v-1.46H239.49V294.59Zm-24.92,0v10.59H215.21V294.59Zm-12.05,0v10.59h-10.5V294.59Zm-22.73,0h10.77v10.59H191Zm0,22.64V306.64h10.77v10.59Zm12.23,0V306.64h10.5v10.59Zm12,0V306.64H225.8v10.59Zm22.82,0H227.25V306.64H238Zm0-12.05H227.25V294.59H238Z" style="fill: rgb(0, 255, 136); transform-origin: 214.57px 305.905px;" id="elwcspp7qemv" class="animable"></path><g id="elfw4w3uux055"><path d="M250.72,294.59v-1.46H239.49V281.81H238v11.32H227.25V281.81H225.8v11.32H215.21V281.81h-1.46v11.32h-10.5V281.81h-1.46v11.32H191V281.81h-1.46v11.32H178.42v1.46h11.14v10.59H178.42v1.46h11.14v10.59H178.42v1.46h11.14V330H191V318.69h10.77V330h1.46V318.69h10.5V330h1.46V318.69H225.8V330h1.45V318.69H238V330h1.46V318.69h11.23v-1.46H239.49V306.64h11.23v-1.46H239.49V294.59Zm-24.92,0v10.59H215.21V294.59Zm-12.05,0v10.59h-10.5V294.59Zm-22.73,0h10.77v10.59H191Zm0,22.64V306.64h10.77v10.59Zm12.23,0V306.64h10.5v10.59Zm12,0V306.64H225.8v10.59Zm22.82,0H227.25V306.64H238Zm0-12.05H227.25V294.59H238Z" style="fill: rgb(255, 255, 255); opacity: 0.7; transform-origin: 214.57px 305.905px;" class="animable"></path></g><path d="M247,331.46H181.91a5.13,5.13,0,0,1-5.13-5.13V285.48a5.13,5.13,0,0,1,5.13-5.13H247a5.13,5.13,0,0,1,5.13,5.13v40.85A5.13,5.13,0,0,1,247,331.46Zm-65.13-48.19a2.22,2.22,0,0,0-2.22,2.21v40.85a2.23,2.23,0,0,0,2.22,2.22H247a2.23,2.23,0,0,0,2.22-2.22V285.48a2.22,2.22,0,0,0-2.22-2.21Z" style="fill: rgb(0, 255, 136); transform-origin: 214.455px 305.905px;" id="elnkbbn5sue5r" class="animable"></path><g id="elfju7vkic528"><g style="opacity: 0.8; transform-origin: 214.455px 305.905px;" class="animable"><path d="M247,331.46H181.91a5.13,5.13,0,0,1-5.13-5.13V285.48a5.13,5.13,0,0,1,5.13-5.13H247a5.13,5.13,0,0,1,5.13,5.13v40.85A5.13,5.13,0,0,1,247,331.46Zm-65.13-48.19a2.22,2.22,0,0,0-2.22,2.21v40.85a2.23,2.23,0,0,0,2.22,2.22H247a2.23,2.23,0,0,0,2.22-2.22V285.48a2.22,2.22,0,0,0-2.22-2.21Z" style="fill: rgb(255, 255, 255); transform-origin: 214.455px 305.905px;" id="elskbibq5w1a" class="animable"></path></g></g><polygon points="239.61 291.43 233.09 291.43 226.57 297.95 214.31 304.09 201.46 304.09 188.81 316.74 179.69 316.74 179.69 318.92 189.72 318.92 202.37 306.27 214.83 306.27 227.87 299.75 234 293.62 240.13 293.62 249.26 289.06 249.26 286.61 239.61 291.43" style="fill: rgb(0, 255, 136); transform-origin: 214.475px 302.765px;" id="elm9yh39z1zws" class="animable"></polygon><g id="elzidcri0kt3m"><g style="opacity: 0.6; transform-origin: 214.475px 302.765px;" class="animable"><polygon points="239.61 291.43 233.09 291.43 226.57 297.95 214.31 304.09 201.46 304.09 188.81 316.74 179.69 316.74 179.69 318.92 189.72 318.92 202.37 306.27 214.83 306.27 227.87 299.75 234 293.62 240.13 293.62 249.26 289.06 249.26 286.61 239.61 291.43" style="fill: rgb(255, 255, 255); transform-origin: 214.475px 302.765px;" id="elcvzyoo3368u" class="animable"></polygon></g></g><polygon points="239.22 304.28 214.31 316.74 201.66 316.74 189.01 323.06 179.69 323.06 179.69 325.25 189.52 325.25 202.18 318.92 214.83 318.92 240.52 306.08 249.26 297.34 249.26 294.25 239.22 304.28" style="fill: rgb(0, 255, 136); transform-origin: 214.475px 309.75px;" id="elo1zygq2vjo9" class="animable"></polygon><polygon points="239.61 297.76 226.96 304.09 214.31 304.09 201.66 310.41 179.69 310.41 179.69 312.6 202.18 312.6 214.83 306.27 227.48 306.27 240.13 299.95 249.26 299.95 249.26 297.76 239.61 297.76" style="fill: rgb(0, 255, 136); transform-origin: 214.475px 305.18px;" id="elr6ec6w9w4ah" class="animable"></polygon><g id="elru67n383tn"><g style="opacity: 0.3; transform-origin: 214.475px 305.18px;" class="animable"><polygon points="239.61 297.76 226.96 304.09 214.31 304.09 201.66 310.41 179.69 310.41 179.69 312.6 202.18 312.6 214.83 306.27 227.48 306.27 240.13 299.95 249.26 299.95 249.26 297.76 239.61 297.76" style="fill: rgb(255, 255, 255); transform-origin: 214.475px 305.18px;" id="elejkplpdbivg" class="animable"></polygon></g></g></g><g id="freepik--Projector--inject-161" class="animable" style="transform-origin: 210.66px 374.41px;"><rect x="148.64" y="341.05" width="124.04" height="8.58" rx="2.83" style="fill: rgb(0, 255, 136); transform-origin: 210.66px 345.34px;" id="el0eybs77ocm88" class="animable"></rect><g id="el00y9gxxcseiy"><rect x="148.64" y="341.05" width="124.04" height="8.58" rx="2.83" style="fill: rgb(255, 255, 255); opacity: 0.6; transform-origin: 210.66px 345.34px;" class="animable"></rect></g><rect x="167.28" y="349.63" width="86.77" height="14.06" style="fill: rgb(0, 255, 136); transform-origin: 210.665px 356.66px;" id="elextojntaeso" class="animable"></rect><g id="el66yp6gzwb8m"><rect x="167.28" y="349.63" width="86.77" height="14.06" style="fill: rgb(255, 255, 255); opacity: 0.3; transform-origin: 210.665px 356.66px;" class="animable"></rect></g><rect x="167.28" y="406.65" width="86.77" height="7.03" style="fill: rgb(0, 255, 136); transform-origin: 210.665px 410.165px;" id="eluv0dinsdiah" class="animable"></rect><g id="elzvnn22vkwe"><rect x="167.28" y="406.65" width="86.77" height="7.03" style="fill: rgb(255, 255, 255); opacity: 0.3; transform-origin: 210.665px 410.165px;" class="animable"></rect></g><path d="M206.21,349.63h8.91a0,0,0,0,1,0,0V432a2.44,2.44,0,0,1-2.44,2.44h-3a3.43,3.43,0,0,1-3.43-3.43V349.63A0,0,0,0,1,206.21,349.63Z" style="fill: rgb(38, 50, 56); transform-origin: 210.665px 392.035px;" id="el9qs70x7nl3" class="animable"></path><path d="M162.83,349.63h8.91a0,0,0,0,1,0,0V432a2.44,2.44,0,0,1-2.44,2.44h-3a3.43,3.43,0,0,1-3.43-3.43V349.63A0,0,0,0,1,162.83,349.63Z" style="fill: rgb(38, 50, 56); transform-origin: 167.285px 392.035px;" id="els69e9hajm9j" class="animable"></path><path d="M249.6,349.63h8.91a0,0,0,0,1,0,0V432a2.44,2.44,0,0,1-2.44,2.44h-3A3.43,3.43,0,0,1,249.6,431V349.63A0,0,0,0,1,249.6,349.63Z" style="fill: rgb(38, 50, 56); transform-origin: 254.055px 392.035px;" id="elregp05oocl" class="animable"></path><path d="M176.65,337.21h4.7a0,0,0,0,1,0,0v2.16a1.8,1.8,0,0,1-1.8,1.8h-1.1a1.8,1.8,0,0,1-1.8-1.8v-2.16A0,0,0,0,1,176.65,337.21Z" style="fill: rgb(38, 50, 56); transform-origin: 179px 339.19px;" id="el4lvt3y8ozng" class="animable"></path><path d="M209.14,337.21h4.7a0,0,0,0,1,0,0v2.16a1.8,1.8,0,0,1-1.8,1.8h-1.1a1.8,1.8,0,0,1-1.8-1.8v-2.16A0,0,0,0,1,209.14,337.21Z" style="fill: rgb(38, 50, 56); transform-origin: 211.49px 339.19px;" id="el46aiop7zi6f" class="animable"></path><path d="M231.66,332.25h4.7a0,0,0,0,1,0,0v7.12a1.8,1.8,0,0,1-1.8,1.8h-1.1a1.8,1.8,0,0,1-1.8-1.8v-7.12A0,0,0,0,1,231.66,332.25Z" style="fill: rgb(38, 50, 56); transform-origin: 234.01px 336.71px;" id="elfvtcare0w4v" class="animable"></path><path d="M192.92,332.25h4.7a0,0,0,0,1,0,0v7.12a1.8,1.8,0,0,1-1.8,1.8h-1.1a1.8,1.8,0,0,1-1.8-1.8v-7.12A0,0,0,0,1,192.92,332.25Z" style="fill: rgb(38, 50, 56); transform-origin: 195.27px 336.71px;" id="elbfmpqmjiilc" class="animable"></path><circle cx="221.62" cy="323.3" r="8.6" style="fill: rgb(0, 255, 136); transform-origin: 221.62px 323.3px;" id="el28cch4o3jl7i" class="animable"></circle><g id="ellfa0ydoogeq"><circle cx="221.62" cy="323.3" r="8.6" style="fill: rgb(255, 255, 255); opacity: 0.5; transform-origin: 221.62px 323.3px;" class="animable"></circle></g><g id="elmklsg8reodr"><circle cx="219.75" cy="325.17" r="7.63" style="fill: rgb(0, 255, 136); transform-origin: 219.75px 325.17px; transform: rotate(-45deg);" class="animable"></circle></g><g id="elidy5c1dv3qs"><circle cx="219.75" cy="325.17" r="7.63" style="fill: rgb(255, 255, 255); opacity: 0.2; transform-origin: 219.75px 325.17px; transform: rotate(-45deg);" class="animable"></circle></g><path d="M236,321.54H195.22a3.06,3.06,0,0,0-.74.09L175,326.74a2.93,2.93,0,0,0-2.18,2.82v6.38a2.92,2.92,0,0,0,2.92,2.92h40.75a2.74,2.74,0,0,0,.74-.1l19.47-5.1a2.92,2.92,0,0,0,2.18-2.83v-6.38A2.91,2.91,0,0,0,236,321.54Z" style="fill: rgb(0, 255, 136); transform-origin: 205.85px 330.2px;" id="elibmhbemybjb" class="animable"></path><g id="elwfl2h047uup"><path d="M236,321.54H195.22a3.06,3.06,0,0,0-.74.09L175,326.74a2.93,2.93,0,0,0-2.18,2.82v6.38a2.92,2.92,0,0,0,2.92,2.92h40.75a2.74,2.74,0,0,0,.74-.1l19.47-5.1a2.92,2.92,0,0,0,2.18-2.83v-6.38A2.91,2.91,0,0,0,236,321.54Z" style="fill: rgb(255, 255, 255); opacity: 0.7; transform-origin: 205.85px 330.2px;" class="animable"></path></g><path d="M215.72,338.86a2.77,2.77,0,0,0,2.94-2.82v-6.38a2.92,2.92,0,0,0-2.92-2.92h-40a2.9,2.9,0,0,0-2.54,1.35,2.87,2.87,0,0,0-.4,1.47v6.38a2.92,2.92,0,0,0,2.92,2.92Z" style="fill: rgb(38, 50, 56); transform-origin: 195.73px 332.802px;" id="el46f562zaabq" class="animable"></path><g id="elb57l02frd8"><path d="M215.72,338.86a2.77,2.77,0,0,0,2.94-2.82v-6.38a2.92,2.92,0,0,0-2.92-2.92h-40a2.9,2.9,0,0,0-2.54,1.35,2.87,2.87,0,0,0-.4,1.47v6.38a2.92,2.92,0,0,0,2.92,2.92Z" style="fill: rgb(255, 255, 255); opacity: 0.5; transform-origin: 195.73px 332.802px;" class="animable"></path></g><path d="M182.48,330.78H176a.79.79,0,0,1-.79-.78h0a.79.79,0,0,1,.79-.79h6.5a.79.79,0,0,1,.79.79h0A.78.78,0,0,1,182.48,330.78Z" style="fill: rgb(255, 255, 255); transform-origin: 179.25px 329.995px;" id="elkl5lx2x7cl" class="animable"></path><path d="M182.48,333.64H176a.79.79,0,0,1-.79-.78h0a.79.79,0,0,1,.79-.79h6.5a.79.79,0,0,1,.79.79h0A.78.78,0,0,1,182.48,333.64Z" style="fill: rgb(255, 255, 255); transform-origin: 179.25px 332.855px;" id="elgtbdjh34zyb" class="animable"></path><path d="M182.48,336.5H176a.79.79,0,0,1-.79-.78h0a.79.79,0,0,1,.79-.79h6.5a.79.79,0,0,1,.79.79h0A.78.78,0,0,1,182.48,336.5Z" style="fill: rgb(255, 255, 255); transform-origin: 179.25px 335.715px;" id="elgddqtvjdr16" class="animable"></path><path d="M211.2,335a1.28,1.28,0,0,0-1.81,0l-.9-.91a2.55,2.55,0,0,1,3.61,0Z" style="fill: rgb(0, 255, 136); transform-origin: 210.295px 334.171px;" id="eluq4c0mow4xc" class="animable"></path><path d="M207.73,333.33l-.91-.91a4.91,4.91,0,0,1,7,0l-.91.91A3.72,3.72,0,0,0,207.73,333.33Z" style="fill: rgb(0, 255, 136); transform-origin: 210.32px 332.142px;" id="ellbrbp7iq3fr" class="animable"></path><path d="M206.31,331.9l-.91-.91a6.93,6.93,0,0,1,9.79,0l-.91.91A5.64,5.64,0,0,0,206.31,331.9Z" style="fill: rgb(0, 255, 136); transform-origin: 210.295px 330.433px;" id="elhgmg468b1nc" class="animable"></path><g id="elue8wbyysimc"><g style="opacity: 0.3; transform-origin: 210.295px 331.983px;" class="animable"><path d="M211.2,335a1.28,1.28,0,0,0-1.81,0l-.9-.91a2.55,2.55,0,0,1,3.61,0Z" id="ell41i0hqika" class="animable" style="transform-origin: 210.295px 334.171px;"></path><path d="M207.73,333.33l-.91-.91a4.91,4.91,0,0,1,7,0l-.91.91A3.72,3.72,0,0,0,207.73,333.33Z" id="eltbt9u3ccldb" class="animable" style="transform-origin: 210.32px 332.142px;"></path><path d="M206.31,331.9l-.91-.91a6.93,6.93,0,0,1,9.79,0l-.91.91A5.64,5.64,0,0,0,206.31,331.9Z" id="el8h8lo7hi4sw" class="animable" style="transform-origin: 210.295px 330.433px;"></path></g></g></g><g id="freepik--character-2--inject-161" class="animable" style="transform-origin: 408.198px 284.929px;"><path d="M424.94,182.67c-.66,4.12-1.24,10.15,1.72,12.78,0,0,0,4.19-11.44,9.12-4.39-5.85-1.34-8.66-1.34-8.66,4.54-1.25,4.35-3.11,3.45-6.27Z" style="fill: rgb(255, 139, 123); transform-origin: 419.754px 193.62px;" id="elbvpsqztbz9i" class="animable"></path><g id="eldef97rsaqbc"><path d="M421.85,185.48l-4.47,4.16a13.12,13.12,0,0,1,.47,2.24c1.75-.31,4.44-1.89,4.75-3.81A5.51,5.51,0,0,0,421.85,185.48Z" style="opacity: 0.2; isolation: isolate; transform-origin: 419.99px 188.68px;" class="animable"></path></g><path d="M430,175.45c-1.6,6.79-2.13,9.68-6.2,12.6-6.12,4.39-14.1.93-14.56-6.19-.4-6.41,2.3-16.46,9.48-18A9.49,9.49,0,0,1,430,175.45Z" style="fill: rgb(255, 139, 123); transform-origin: 419.746px 176.812px;" id="el6hxkrwdhod6" class="animable"></path><path d="M418.81,175.36c-.1.56-.47,1-.83.9s-.59-.57-.5-1.13.48-1,.84-.9S418.88,174.82,418.81,175.36Z" style="fill: rgb(38, 50, 56); transform-origin: 418.142px 175.245px;" id="elf4fm8h4liq4" class="animable"></path><path d="M412.51,174.28c-.1.57-.48,1-.84.9s-.58-.57-.49-1.12.48-1,.84-.9S412.6,173.73,412.51,174.28Z" style="fill: rgb(38, 50, 56); transform-origin: 411.845px 174.17px;" id="elhyfir2q83a" class="animable"></path><path d="M414.28,175.63a15.28,15.28,0,0,1-2.61,3.22,2.47,2.47,0,0,0,1.93.71Z" style="fill: rgb(248, 74, 53); transform-origin: 412.975px 177.599px;" id="elr0zi0970zi" class="animable"></path><path d="M416.26,182.27a4.78,4.78,0,0,1-.84-.08.17.17,0,0,1-.14-.19h0a.17.17,0,0,1,.2-.13,4.5,4.5,0,0,0,3.9-1.11.17.17,0,0,1,.24,0,.18.18,0,0,1,0,.24A4.64,4.64,0,0,1,416.26,182.27Z" style="fill: rgb(38, 50, 56); transform-origin: 417.472px 181.492px;" id="elg96aq5906a" class="animable"></path><path d="M421.53,173.68a.33.33,0,0,1-.39,0,3.92,3.92,0,0,0-3.08-.63.34.34,0,0,1-.41-.26.33.33,0,0,1,.25-.39h0a4.52,4.52,0,0,1,3.68.79.32.32,0,0,1,0,.46h0A.27.27,0,0,1,421.53,173.68Z" style="fill: rgb(38, 50, 56); transform-origin: 419.66px 173.018px;" id="elj7u2x6qbvvq" class="animable"></path><path d="M410.66,171.74a.36.36,0,0,1-.24-.24.34.34,0,0,1,.23-.41,3.29,3.29,0,0,1,3,.58.33.33,0,0,1,0,.45l0,0a.33.33,0,0,1-.46,0h0a2.62,2.62,0,0,0-2.36-.42A.34.34,0,0,1,410.66,171.74Z" style="fill: rgb(38, 50, 56); transform-origin: 412.074px 171.582px;" id="elgdnofj35gpw" class="animable"></path><path d="M381.31,218.94l-8.42-8.16-.52-4a2.26,2.26,0,0,0-1.36-1.8l-1.68-.71a2.3,2.3,0,0,1-1.1-1l-.59-1.08a2.27,2.27,0,0,0-3.42-.66h0a2.26,2.26,0,0,0-.84,1.76V209a2.24,2.24,0,0,0,1.06,1.91l5.15,3.26L378,224.28Z" style="fill: rgb(255, 139, 123); transform-origin: 372.345px 212.65px;" id="elmo3v00nhcr9" class="animable"></path><path d="M408,196.36s-5.63,1-16.23,21.32L390,221a3.14,3.14,0,0,1-4.8.88l-6.2-5.31-3.92,5.8s10.16,13.07,16,12.05S404,216.26,404,216.26,412.65,193.78,408,196.36Z" style="fill: rgb(0, 255, 136); transform-origin: 392.227px 215.315px;" id="el165qljh2iqu" class="animable"></path><g id="elhdt64ntiil7"><path d="M395.62,231c4.42-5.25,8.38-14.77,8.38-14.77s1.5-3.89,2.91-8.25l-5.09-3.48S396.33,222,395.62,231Z" style="opacity: 0.1; transform-origin: 401.265px 217.75px;" class="animable"></path></g><polygon points="414.96 391.1 413.84 404.4 406.38 403.94 406.27 391.15 414.96 391.1" style="fill: rgb(255, 139, 123); transform-origin: 410.615px 397.75px;" id="elmci15alhbcl" class="animable"></polygon><path d="M403.08,404.22a3.29,3.29,0,0,1-2.29-.6.68.68,0,0,1,0-.8,1,1,0,0,1,.58-.43c1.3-.35,4,1.21,4.13,1.28a.19.19,0,0,1,.09.19.19.19,0,0,1-.15.15A13.67,13.67,0,0,1,403.08,404.22Zm-1.24-1.52a1.48,1.48,0,0,0-.35.05.48.48,0,0,0-.36.26c-.14.22-.09.34,0,.4.36.51,2.32.53,3.77.35A8.51,8.51,0,0,0,401.84,402.7Z" style="fill: rgb(0, 255, 136); transform-origin: 403.126px 403.29px;" id="elh6pl40grif" class="animable"></path><path d="M405.43,404a.08.08,0,0,1-.08,0c-.93-.41-2.79-2.11-2.62-3,0-.22.18-.47.69-.52a1.35,1.35,0,0,1,1,.32c1,.82,1.19,2.92,1.2,3a.16.16,0,0,1-.21.17Zm-1.89-3.16h-.11c-.33,0-.35.16-.36.21-.05.53,1.17,1.85,2.13,2.43a4.43,4.43,0,0,0-1-2.4,1,1,0,0,0-.64-.23Z" style="fill: rgb(0, 255, 136); transform-origin: 404.17px 402.243px;" id="elkmdsnl50nm" class="animable"></path><path d="M406.26,402.93l8.5,0a.68.68,0,0,1,.66.54l1.51,6.92a1.14,1.14,0,0,1-.86,1.36,1,1,0,0,1-.24,0c-3.06-.07-5.79-.25-9.6-.26-4.5,0-3.36.53-8.65.58-3.19,0-3.76-3.6-2.41-3.77,6.19-.75,6.84-2.62,9.24-4.82A2.7,2.7,0,0,1,406.26,402.93Z" style="fill: rgb(38, 50, 56); transform-origin: 405.722px 407.496px;" id="el7girh7qdlrm" class="animable"></path><g id="elpiq5555q3ac"><polygon points="414.29 399.04 406.33 398.87 406.27 391.15 414.96 391.1 414.29 399.04" style="fill: rgb(38, 50, 56); opacity: 0.2; transform-origin: 410.615px 395.07px;" class="animable"></polygon></g><path d="M403.56,258.48s-1.77,47.36-1.74,63.15c.05,18.58,3.27,74.27,3.27,74.27h10.45a323.5,323.5,0,0,0,3.5-47.13c-.07-8.4-1.91-16.82-1.1-24.52,1.72-16.52,8.27-22.65,8.49-65.77Z" style="fill: rgb(38, 50, 56); transform-origin: 414.125px 327.19px;" id="eliqxxl4feaf" class="animable"></path><g id="el3lgxolg0xgv"><path d="M421.37,280.68l-3.15-3.95a294.58,294.58,0,0,0-.38,48.68c0-.39.06-.78.1-1.16,1.14-11,4.41-17.35,6.54-33Z" style="opacity: 0.2; transform-origin: 420.747px 301.07px;" class="animable"></path></g><polygon points="437.93 390.82 437.62 404.17 430.14 404.17 429.26 391.41 437.93 390.82" style="fill: rgb(255, 139, 123); transform-origin: 433.595px 397.495px;" id="elcon28n0p27h" class="animable"></polygon><path d="M426.55,404.22a3.28,3.28,0,0,1-2.28-.6.68.68,0,0,1,0-.8,1,1,0,0,1,.58-.43c1.3-.35,4,1.21,4.13,1.28a.19.19,0,0,1,.09.19.19.19,0,0,1-.15.15A13.7,13.7,0,0,1,426.55,404.22Zm-1.23-1.52a1.34,1.34,0,0,0-.35.05.48.48,0,0,0-.36.26c-.14.22-.09.34,0,.4.36.51,2.32.53,3.77.35A8.51,8.51,0,0,0,425.32,402.7Z" style="fill: rgb(0, 255, 136); transform-origin: 426.606px 403.289px;" id="el202a74byblk" class="animable"></path><path d="M428.91,404a.08.08,0,0,1-.08,0c-.93-.41-2.79-2.11-2.62-3,0-.22.18-.47.69-.52a1.35,1.35,0,0,1,1,.32c1,.82,1.19,2.92,1.2,3a.18.18,0,0,1-.09.16A.16.16,0,0,1,428.91,404ZM427,400.85h-.11c-.33,0-.35.16-.37.21-.05.53,1.18,1.85,2.14,2.43a4.36,4.36,0,0,0-1-2.4,1,1,0,0,0-.63-.23Z" style="fill: rgb(0, 255, 136); transform-origin: 427.65px 402.243px;" id="elkc9fx77aqup" class="animable"></path><path d="M429.74,402.93l8.49,0a.69.69,0,0,1,.67.54l1.51,6.92a1.14,1.14,0,0,1-.86,1.36,1,1,0,0,1-.24,0c-3.06-.07-5.79-.25-9.6-.26-4.5,0-3.36.53-8.65.58-3.19,0-3.76-3.6-2.41-3.77,6.19-.75,6.84-2.62,9.24-4.82A2.7,2.7,0,0,1,429.74,402.93Z" style="fill: rgb(38, 50, 56); transform-origin: 429.202px 407.496px;" id="ell1352bou9ei" class="animable"></path><g id="el4ocwq0yqcdc"><polygon points="437.74 398.79 429.79 399.1 429.26 391.41 437.93 390.82 437.74 398.79" style="fill: rgb(38, 50, 56); opacity: 0.2; transform-origin: 433.595px 394.96px;" class="animable"></polygon></g><path d="M417.07,258.48s3.06,48.45,4.06,64.6c1.13,18.21,7,72.82,7,72.82h10.68s1.84-24.44,1.55-46.84c-.12-9.5-3.12-18.45-3.3-25.39-.23-9,5-41.4,1.8-67.65Z" style="fill: rgb(38, 50, 56); transform-origin: 428.73px 325.96px;" id="eli1u4ixpgvmo" class="animable"></path><path d="M411.26,195.75c-6.2.78-10.74,2.18-10.45,23.09S402,260.65,402,260.65h38s-1.75-31.94,0-45,.58-19.46-7.55-19.9S416.73,195.07,411.26,195.75Z" style="fill: rgb(0, 255, 136); transform-origin: 420.749px 227.988px;" id="elou8yk9g10kq" class="animable"></path><path d="M413.58,193.5v2.66s.83,2.64,8,2.5,7.79-3.33,7.79-3.33V193.4a2.2,2.2,0,0,0-2.64-2.16,34.68,34.68,0,0,1-10.74.07A2.2,2.2,0,0,0,413.58,193.5Z" style="fill: rgb(0, 255, 136); transform-origin: 421.475px 194.93px;" id="elmotka8qp8cf" class="animable"></path><g id="el0lany2h9xr8p"><path d="M377.42,225.07l3.73-6.73-1.83-1.57-3.62,6.29C376.1,223.55,376.69,224.25,377.42,225.07Z" style="opacity: 0.1; transform-origin: 378.425px 220.92px;" class="animable"></path></g><polygon points="378.16 214.7 373.58 222.11 375.11 225.23 380.63 216.3 378.16 214.7" style="fill: rgb(0, 255, 136); transform-origin: 377.105px 219.965px;" id="ele5u7ebcnej5" class="animable"></polygon><g id="ellsup8kn32ff"><path d="M421.62,198.66c-7.21.14-8-2.5-8-2.5v-.63s-2.12,4.11,4.14,4.77,10.4-2.35,11.27-4.14h0C428.3,197.1,426.45,198.56,421.62,198.66Z" style="opacity: 0.1; transform-origin: 421.152px 197.961px;" class="animable"></path></g><g id="el0a5uupx3evzj"><path d="M439.69,207.54h-5.54s3.06,12.06,5.15,19.16a108.29,108.29,0,0,1,.71-11c.29-2.21.49-4.21.6-6Z" style="opacity: 0.1; transform-origin: 437.38px 217.12px;" class="animable"></path></g><path d="M444.94,241.49,440,255.21,436.12,258a2.08,2.08,0,0,0-.87,1.68V262a2.16,2.16,0,0,1-.09.62h0a2.06,2.06,0,0,0,1.46,2.62l2.77.67a2,2,0,0,0,2.13-.76l2-2.72a2,2,0,0,0,.41-1.23v-4l6.21-13.86Z" style="fill: rgb(255, 139, 123); transform-origin: 442.602px 253.733px;" id="ellfc5oqq8wn" class="animable"></path><path d="M432.46,195.75a17.3,17.3,0,0,1,12.48,8.57c4.79,8,9.15,25.55,7.84,32.52a49.71,49.71,0,0,1-3,10.75l-7-2.76a26.05,26.05,0,0,0,1.77-11.27c-.58-5.72-11.76-27.93-12.05-30.55S429.84,196.34,432.46,195.75Z" style="fill: rgb(0, 255, 136); transform-origin: 442.128px 221.67px;" id="elbblt613u9ja" class="animable"></path><g id="el0f2pldq6yfr"><path d="M443.71,241.85a25.25,25.25,0,0,1-1,3l7,2.76a31.77,31.77,0,0,0,1.22-3.32Z" style="opacity: 0.1; transform-origin: 446.82px 244.73px;" class="animable"></path></g><polygon points="441.53 246.08 449.79 248.85 452.48 246.65 442.53 243.31 441.53 246.08" style="fill: rgb(0, 255, 136); transform-origin: 447.005px 246.08px;" id="elsaivxeanw6" class="animable"></polygon><path d="M418.14,168.14c-2.42-.64-8.55-2.83-5.65-8.27s3.66,1.45,6.19,1.88,11.38.08,12,7.7c0,0,2.91,4.65-1.3,11.08,0,0-3.24-.56-2.75-3.24s-.72-3.2-1.71-4.07-.26-3.77-.26-3.77S419.76,168.57,418.14,168.14Z" style="fill: rgb(38, 50, 56); transform-origin: 421.693px 169.159px;" id="elhlntvr1m85" class="animable"></path><path d="M431,181.05a5,5,0,0,1-3,2.37c-1.7.46-2.54-1-2.07-2.66.44-1.43,1.84-3.41,3.54-3.2a2.26,2.26,0,0,1,1.87,2.58A2.38,2.38,0,0,1,431,181.05Z" style="fill: rgb(255, 139, 123); transform-origin: 428.584px 180.525px;" id="elg5jzdw78qz" class="animable"></path><path d="M426.72,175.54l-4.62-.73c-.4-1.18-2.06-1.44-2.77-1.56s-2.5-.39-3.2.75l-1.61-.26c-.31-1.3-2.08-1.58-2.81-1.7s-3.15-.5-3.46,1.46a3.2,3.2,0,0,0,6.29,1c0-.11,0-.21,0-.31l1.38.22a2.81,2.81,0,0,0-.08.31,3.2,3.2,0,0,0,6.29,1,1.81,1.81,0,0,0,0-.46l4.47.72a2.64,2.64,0,0,1,1.58.86l.33-.28A3.17,3.17,0,0,0,426.72,175.54Zm-15.71.85a2.6,2.6,0,0,1-2.33-2.82c.17-1.07,1.06-1.4,3-1.1s2.64.89,2.47,2A2.61,2.61,0,0,1,411,176.39Zm7.63,1.22a2.61,2.61,0,0,1-2.34-2.83c.17-1.07,1.06-1.4,3-1.1s2.64.89,2.47,2A2.59,2.59,0,0,1,418.64,177.61Z" style="fill: rgb(38, 50, 56); transform-origin: 418.377px 175.02px;" id="el3gn3t6p924z" class="animable"></path><g id="eljbx70ya1u59"><g style="opacity: 0.2; transform-origin: 416.769px 247.88px;" class="animable"><path d="M413.84,284.21l-4.58,4.58a19.34,19.34,0,0,1-7.43,30.46c0,.85,0,1.66,0,2.38,0,1.31,0,2.82.06,4.47a25.83,25.83,0,0,0,12-41.89Z" id="eldnn3u2a92t" class="animable" style="transform-origin: 411.106px 305.155px;"></path><path d="M430.83,177.8a9.88,9.88,0,0,0,0-8.14Z" id="elj5q42e2gers" class="animable" style="transform-origin: 431.269px 173.73px;"></path><path d="M431.36,180.14a2.24,2.24,0,0,0-.53-1.81v3c.05-.08.12-.15.17-.24A2.38,2.38,0,0,0,431.36,180.14Z" id="el51uqs2c8c4r" class="animable" style="transform-origin: 431.108px 179.83px;"></path><path d="M411.63,282a25.69,25.69,0,0,0-8.72-5.06c-.07,2.19-.14,4.49-.22,6.85a19.27,19.27,0,0,1,4.36,2.79Z" id="eltl7p5cdy94" class="animable" style="transform-origin: 407.16px 281.76px;"></path></g></g></g><g id="freepik--character-1--inject-161" class="animable" style="transform-origin: 125.341px 299.945px;"><polygon points="89.09 408.18 88.29 422.42 96.25 423.06 98.28 409.55 89.09 408.18" style="fill: rgb(255, 139, 123); transform-origin: 93.285px 415.62px;" id="elhaiv2im9gwd" class="animable"></polygon><path d="M98.12,422.63a.22.22,0,0,1-.16-.16.19.19,0,0,1,.09-.21c.13-.07,3-1.74,4.42-1.37a1,1,0,0,1,.62.46.75.75,0,0,1,0,.86,3.55,3.55,0,0,1-2.44.64A14.47,14.47,0,0,1,98.12,422.63Zm.64-.27c1.55.19,3.64.16,4-.38,0-.07.1-.19,0-.43a.52.52,0,0,0-.39-.27,1.2,1.2,0,0,0-.38,0A9,9,0,0,0,98.76,422.36Z" style="fill: rgb(0, 255, 136); transform-origin: 100.59px 421.853px;" id="el4svceca3efo" class="animable"></path><path d="M98,422.62a.18.18,0,0,1-.08-.18c0-.11.22-2.35,1.27-3.23a1.51,1.51,0,0,1,1.1-.34c.54.05.71.33.74.55.18.94-1.82,2.75-2.81,3.2h-.08A.17.17,0,0,1,98,422.62Zm2.16-3.37a1,1,0,0,0-.68.25,4.58,4.58,0,0,0-1.09,2.55c1-.61,2.33-2,2.28-2.59,0,0,0-.19-.4-.22Z" style="fill: rgb(0, 255, 136); transform-origin: 99.4795px 420.749px;" id="eleyrid70uj8b" class="animable"></path><path d="M97.26,421.47l-9.08,0a.75.75,0,0,0-.71.58l-1.61,7.39a1.22,1.22,0,0,0,.92,1.46,1.09,1.09,0,0,0,.26,0c3.27-.07,6.18-.27,10.26-.28,4.81,0,3.59.56,9.24.62,3.41,0,4-3.84,2.57-4-6.61-.8-7.31-2.8-9.87-5.15A2.91,2.91,0,0,0,97.26,421.47Z" style="fill: rgb(38, 50, 56); transform-origin: 97.8334px 426.352px;" id="elpayerllw6qj" class="animable"></path><g id="elsfm4nu18oy8"><polygon points="88.61 416.69 97.06 417.7 98.28 409.55 89.09 408.18 88.61 416.69" style="fill: rgb(38, 50, 56); opacity: 0.2; transform-origin: 93.445px 412.94px;" class="animable"></polygon></g><path d="M104,249.92s-8.25,5.46-8.76,23.84c-.37,13.28.49,41.78,1,56.61A54.91,54.91,0,0,1,94.5,346.1c-2.34,9-6,28.88-7.07,68.4H98.31s11.77-50.94,15.1-74.23,8.7-90.35,8.7-90.35Z" style="fill: rgb(38, 50, 56); transform-origin: 104.77px 332.21px;" id="elo55f85mcya" class="animable"></path><g id="el6q13n6usxpj"><path d="M119.5,280.85l-8.76-2.37s.83,30.07,4.21,49.36C116.47,314.29,118.15,296.19,119.5,280.85Z" style="opacity: 0.4; transform-origin: 115.12px 303.16px;" class="animable"></path></g><polygon points="121.92 411.26 122.25 425.52 130.24 425.52 131.19 411.88 121.92 411.26" style="fill: rgb(255, 139, 123); transform-origin: 126.555px 418.39px;" id="eleurt2suah0j" class="animable"></polygon><path d="M131.53,425.36a.22.22,0,0,1-.16-.16.19.19,0,0,1,.09-.21c.13-.07,3-1.74,4.42-1.37a1,1,0,0,1,.62.46.75.75,0,0,1,0,.86,3.55,3.55,0,0,1-2.44.64A14.47,14.47,0,0,1,131.53,425.36Zm.64-.27c1.55.18,3.64.16,4-.38.05-.07.1-.19,0-.43a.56.56,0,0,0-.39-.28,1.2,1.2,0,0,0-.38,0A9,9,0,0,0,132.17,425.09Z" style="fill: rgb(0, 255, 136); transform-origin: 134px 424.583px;" id="elm84qcdoew89" class="animable"></path><path d="M131.42,425.35a.18.18,0,0,1-.08-.18c0-.11.22-2.35,1.27-3.23a1.47,1.47,0,0,1,1.1-.34c.54,0,.71.33.74.55.18.94-1.82,2.75-2.81,3.2h-.08A.17.17,0,0,1,131.42,425.35Zm2.16-3.37a1,1,0,0,0-.68.25,4.58,4.58,0,0,0-1.09,2.55c1-.61,2.33-2,2.28-2.59,0-.05,0-.2-.4-.22Z" style="fill: rgb(0, 255, 136); transform-origin: 132.9px 423.479px;" id="elpjiixk5pvbd" class="animable"></path><path d="M130.67,424.2l-9.08,0a.75.75,0,0,0-.71.58l-1.61,7.39a1.22,1.22,0,0,0,.92,1.46l.26,0c3.27-.07,6.18-.27,10.26-.28,4.81,0,3.59.56,9.24.62,3.41,0,4-3.84,2.57-4-6.61-.8-7.31-2.8-9.87-5.15A2.91,2.91,0,0,0,130.67,424.2Z" style="fill: rgb(38, 50, 56); transform-origin: 131.243px 429.082px;" id="el02dnb858fogq" class="animable"></path><g id="eledoj2p2iqrr"><polygon points="122.12 419.78 130.62 420.11 131.19 411.88 121.92 411.26 122.12 419.78" style="fill: rgb(38, 50, 56); opacity: 0.2; transform-origin: 126.555px 415.685px;" class="animable"></polygon></g><path d="M111.87,254.69s-5.18,13.44,1,36.86c2.59,9.81,7.11,39.94,7.11,39.94a50.35,50.35,0,0,1,.21,16A129.71,129.71,0,0,0,119,367.83c.26,17.66,1.54,49.4,1.54,49.4h11.51s6.4-59.07,6.4-78.84c0-21.5-6.91-85.74-6.91-85.74Z" style="fill: rgb(38, 50, 56); transform-origin: 124.144px 334.94px;" id="elvlqcrdfrs5" class="animable"></path><path d="M111.55,202.33s4.85-.78,4.24-9.75c0,0,4.38-2.32,7.45.16s-2.11,9,1.67,11.38C124.91,204.12,121.85,206.45,111.55,202.33Z" style="fill: rgb(255, 139, 123); transform-origin: 118.23px 198.186px;" id="elhonaefwglno" class="animable"></path><path d="M131.59,179c0-.6.34-1.09.73-1.08s.71.5.7,1.1-.34,1.09-.73,1.08S131.58,179.63,131.59,179Z" style="fill: rgb(38, 50, 56); transform-origin: 132.305px 179.01px;" id="elb4ekuimqspn" class="animable"></path><path d="M131.33,180.09l3.41,4a4,4,0,0,1-3.45.84Z" style="fill: rgb(255, 86, 82); transform-origin: 133.015px 182.559px;" id="el5ilxj2ofd9e" class="animable"></path><path d="M129.11,177.32a.38.38,0,0,0,.32-.09,2.78,2.78,0,0,1,2.41-.83.36.36,0,0,0,.42-.27.37.37,0,0,0-.27-.42,3.49,3.49,0,0,0-3.05,1,.34.34,0,0,0,0,.48v0A.35.35,0,0,0,129.11,177.32Z" style="fill: rgb(38, 50, 56); transform-origin: 130.553px 176.495px;" id="els6otbpntfnb" class="animable"></path><path d="M132.43,189.12a8,8,0,0,1-6,6.46h0a11.69,11.69,0,0,1-2.22.36,14.64,14.64,0,0,1-8.44-2.11c-4-3.73-4.2-7-5-14.53a10.19,10.19,0,0,1,.55-4.74,10.4,10.4,0,0,1,13.3-6.28C132.2,171,133.75,182.21,132.43,189.12Z" style="fill: rgb(255, 139, 123); transform-origin: 121.774px 181.817px;" id="elcrfs46a8kj" class="animable"></path><g id="elktca4zfpp9l"><path d="M126.48,195.56l0,0h0a11.69,11.69,0,0,1-2.22.36l.33-2.31S125.36,195.26,126.48,195.56Z" style="opacity: 0.2; transform-origin: 125.37px 194.765px;" class="animable"></path></g><path d="M132.18,178l1.64-.34S132.89,178.84,132.18,178Z" style="fill: rgb(38, 50, 56); transform-origin: 133px 177.981px;" id="elaqppz1t4upq" class="animable"></path><path d="M122.84,166s8.38-1.2,10.68,5.71-3.84-2-5.34-2.22,3.91,6.3-3.27,14.32l-5.82,10.43s-2.25-.69-3.26.42c0,0-4.68-1.39-5.79-10.85S111,165.61,122.84,166Z" style="fill: rgb(38, 50, 56); transform-origin: 121.904px 180.29px;" id="el14fd2fmzxq6h" class="animable"></path><path d="M124.91,182.56s3.14-1.08,3.56.88S127.48,183,124.91,182.56Z" style="fill: rgb(38, 50, 56); transform-origin: 126.727px 183.231px;" id="el2d54iy6a2x8" class="animable"></path><path d="M116.51,194.07s-4.21.28-3.44,2.15S113.89,194.91,116.51,194.07Z" style="fill: rgb(38, 50, 56); transform-origin: 114.743px 195.435px;" id="el3t9an6b02ed" class="animable"></path><path d="M111.37,171.48s-14.13-7.37-16.12,3.5,6.08,14.49,2.22,21.73,5.73,2.22,7.48-4.91,3.48-12.47,6.42-12.55A5.36,5.36,0,0,0,111.37,171.48Z" style="fill: rgb(38, 50, 56); transform-origin: 103.983px 184.641px;" id="el2d9mnq5vtf" class="animable"></path><path d="M111.37,171.48s-.63-.33-1.63-.74a12.36,12.36,0,0,1,.25,9,2.64,2.64,0,0,1,1.38-.48A5.36,5.36,0,0,0,111.37,171.48Z" style="fill: rgb(0, 255, 136); transform-origin: 111.391px 175.24px;" id="el6oiw7kmhedq" class="animable"></path><path d="M124.44,181.09a5.87,5.87,0,0,1,2.15,3.94c.2,2.06-1.73,2.75-3.48,1.89-1.59-.77-3.59-2.77-3-4.7A2.66,2.66,0,0,1,124.44,181.09Z" style="fill: rgb(255, 139, 123); transform-origin: 123.304px 183.834px;" id="el77pxum2z02q" class="animable"></path><circle cx="126.31" cy="187.83" r="1.41" style="fill: rgb(0, 255, 136); transform-origin: 126.31px 187.83px;" id="el8bv0qwu2bbp" class="animable"></circle><g id="elnp6xv11d6jb"><circle cx="126.31" cy="187.83" r="1.41" style="fill: rgb(255, 255, 255); opacity: 0.7; transform-origin: 126.31px 187.83px;" class="animable"></circle></g><path d="M105.7,203.36s-8.93.66-13.79,10.89-8.19,29.44,3.33,29.95,10.46-2.3,10.46-2.3l0-5.12-7.38-2.22a2.83,2.83,0,0,1-1.86-3.66l3.88-11Z" style="fill: rgb(0, 255, 136); transform-origin: 96.579px 223.811px;" id="el9mi79k9rruo" class="animable"></path><g id="el5g1w4t6oa5x"><path d="M105.7,203.36s-8.93.66-13.79,10.89-8.19,29.44,3.33,29.95,10.46-2.3,10.46-2.3l0-5.12-7.38-2.22a2.83,2.83,0,0,1-1.86-3.66l3.88-11Z" style="opacity: 0.1; transform-origin: 96.579px 223.811px;" class="animable"></path></g><path d="M111.5,205.61s-2.81-7.07,0-6.94,14,1.92,16.64,1.4-4.48,6.4-4.48,6.4Z" style="fill: rgb(0, 255, 136); transform-origin: 119.489px 202.569px;" id="elhe0k31gphmj" class="animable"></path><path d="M111.5,205.61s-2.81-7.07,0-6.94,14,1.92,16.64,1.4-4.48,6.4-4.48,6.4Z" style="fill: rgb(38, 50, 56); transform-origin: 119.489px 202.569px;" id="elbsf8ei6i6lw" class="animable"></path><path d="M98.56,257a29.18,29.18,0,0,0,1.73-10.5c-.39-10.77-2.14-27.75-3-34.53-1.06-8.32,10.24-10,22-9.23s18.42.51,17.14,14.33S132.61,257,132.61,257Z" style="fill: rgb(0, 255, 136); transform-origin: 116.904px 229.786px;" id="elmakch3xgj87" class="animable"></path><g id="ellfydnkwx1"><path d="M136.26,219a25.41,25.41,0,0,0-2.25-2.73l-4.49,1s1.4,16.88,4.91,20.89C135.06,231.67,135.74,224.61,136.26,219Z" style="opacity: 0.1; transform-origin: 132.89px 227.215px;" class="animable"></path></g><path d="M129,203.68a9.74,9.74,0,0,1,9.71,6.48c2,5.19,6.1,16.71,8.17,22.65a1.72,1.72,0,0,0,3.14.23l2.77-5.22s4.09.77,5.63,4.35-7.68,13.33-12.55,13.31c-5.39,0-12.42-13.21-14.33-19.28A57.89,57.89,0,0,1,129,203.68Z" style="fill: rgb(0, 255, 136); transform-origin: 143.692px 224.573px;" id="eleol5jd5s0l" class="animable"></path><path d="M152.83,229.51l3.16-5.38s-1.79-3.35-.61-5.51,2.33-.42,3.46-1.08,3.68-5.35,4.91-3,2.75,6.41-3.56,11.21l-3.41,8.56Z" style="fill: rgb(255, 139, 123); transform-origin: 158.841px 224.098px;" id="elpd8tkiaqjl" class="animable"></path><path d="M153.3,227.25a7.65,7.65,0,0,1,5.84,5.5l0,.12c.09.49.71,4.17,0,4.23s-1.72-3.45-7.53-6.51a.69.69,0,0,1-.28-1l1.24-2.05A.68.68,0,0,1,153.3,227.25Z" style="fill: rgb(0, 255, 136); transform-origin: 155.347px 232.166px;" id="elc6ho298x0xn" class="animable"></path><path d="M153.3,227.25a7.65,7.65,0,0,1,5.84,5.5l0,.12c.09.49.71,4.17,0,4.23s-1.72-3.45-7.53-6.51a.69.69,0,0,1-.28-1l1.24-2.05A.68.68,0,0,1,153.3,227.25Z" style="fill: rgb(38, 50, 56); transform-origin: 155.347px 232.166px;" id="el7obpa0gzvul" class="animable"></path><g id="elh3bpuwvguj"><path d="M119.3,202.74a54.67,54.67,0,0,0-12.57.41c.86,1.08,3,2.15,8,2.39,7.36.35,8.36-1.34,11.19-2.32C124,203,121.74,202.9,119.3,202.74Z" style="opacity: 0.1; transform-origin: 116.325px 204.07px;" class="animable"></path></g></g><defs>     <filter id="active" height="200%">         <feMorphology in="SourceAlpha" result="DILATED" operator="dilate" radius="2"></feMorphology>                <feFlood flood-color="#32DFEC" flood-opacity="1" result="PINK"></feFlood>        <feComposite in="PINK" in2="DILATED" operator="in" result="OUTLINE"></feComposite>        <feMerge>            <feMergeNode in="OUTLINE"></feMergeNode>            <feMergeNode in="SourceGraphic"></feMergeNode>        </feMerge>    </filter>    <filter id="hover" height="200%">        <feMorphology in="SourceAlpha" result="DILATED" operator="dilate" radius="2"></feMorphology>                <feFlood flood-color="#ff0000" flood-opacity="0.5" result="PINK"></feFlood>        <feComposite in="PINK" in2="DILATED" operator="in" result="OUTLINE"></feComposite>        <feMerge>            <feMergeNode in="OUTLINE"></feMergeNode>            <feMergeNode in="SourceGraphic"></feMergeNode>        </feMerge>            <feColorMatrix type="matrix" values="0   0   0   0   0                0   1   0   0   0                0   0   0   0   0                0   0   0   1   0 "></feColorMatrix>    </filter></defs></svg>